<svg width="29" height="30" viewBox="0 0 20 20" fill="none" xmlns="http://www.w3.org/2000/svg">
<g clip-path="url(#clip0_1130_533)">
<path d="M11.3257 10L19.4128 1.91285C19.7791 1.54694 19.7791 0.953072 19.4128 0.587166C19.0466 0.220953 18.4534 0.220953 18.0872 0.587166L10 8.67432L1.91285 0.587159C1.54663 0.220947 0.953372 0.220947 0.587166 0.587159C0.220953 0.953066 0.220953 1.54693 0.587166 1.91284L8.67432 10L0.587159 18.0872C0.220947 18.4531 0.220947 19.0469 0.587159 19.4128C0.770266 19.596 1.01013 19.6875 1.25 19.6875C1.48987 19.6875 1.72974 19.596 1.91285 19.4128L10 11.3257L18.0872 19.4128C18.2703 19.596 18.5101 19.6875 18.75 19.6875C18.9899 19.6875 19.2297 19.596 19.4128 19.4128C19.7791 19.0469 19.7791 18.4531 19.4128 18.0872L11.3257 10Z" fill="#33B7BC"/>
</g>
<defs>
<clipPath id="clip0_1130_533">
<rect width="20" height="20" fill="white"/>
</clipPath>
</defs>
</svg>
