<svg width="71" height="67" viewBox="0 0 71 67" fill="none" xmlns="http://www.w3.org/2000/svg">
<path fill-rule="evenodd" clip-rule="evenodd" d="M62.747 0H23.9377L17.1827 11.9947H30.5824L23.0166 25.1324L36.4388 25.123L43.9992 11.9947H55.8476L62.747 0Z" fill="#00A3A9"/>
<path fill-rule="evenodd" clip-rule="evenodd" d="M28.9264 7.83789H2.34085L0 11.995H26.5351L28.9264 7.83789Z" fill="#00A3A9"/>
<path fill-rule="evenodd" clip-rule="evenodd" d="M0.0927734 18.2168L19.4975 52.0766L33.186 51.9726L26.486 40.282L41.563 40.3141L34.8438 28.6085L19.7777 28.5764L13.8537 18.2389L0.0927734 18.2168Z" fill="#049393"/>
<path fill-rule="evenodd" clip-rule="evenodd" d="M23.7402 43.8057L37.0331 67.0004L41.7772 66.9646L28.5095 43.8133L23.7402 43.8057Z" fill="#049393"/>
<path fill-rule="evenodd" clip-rule="evenodd" d="M47.5345 63.8338L66.939 29.9743L60.0055 18.0833L53.3058 29.7741L45.7949 16.6044L39.0919 28.3191L46.5973 41.4797L40.673 51.817L47.5345 63.8338Z" fill="#33B7BC"/>
<path fill-rule="evenodd" clip-rule="evenodd" d="M57.7071 30.4075L70.9998 7.21302L68.5968 3.0918L55.3292 26.2428L57.7071 30.4075Z" fill="#33B7BC"/>
</svg>
