<svg width="29" height="30" viewBox="0 0 29 30" fill="none" xmlns="http://www.w3.org/2000/svg">
<path d="M15.5441 14.0372L15.5441 2.23135C15.5443 1.69696 15.1109 1.26349 14.5765 1.26371C14.0419 1.26371 13.6088 1.69674 13.6088 2.23135L13.6088 14.0372L1.80292 14.0372C1.26831 14.0372 0.835283 14.4703 0.835288 15.0049C0.835064 15.5393 1.26854 15.9727 1.80292 15.9725L13.6088 15.9725L13.6088 27.7784C13.6086 28.3128 14.0421 28.7463 14.5765 28.7461C14.8438 28.7461 15.0857 28.6378 15.2608 28.4627C15.4358 28.2876 15.5441 28.0457 15.5441 27.7784L15.5441 15.9725L27.35 15.9725C27.6173 15.9725 27.8592 15.8643 28.0343 15.6892C28.2094 15.5141 28.3176 15.2722 28.3176 15.0049C28.3179 14.4705 27.8844 14.037 27.35 14.0372L15.5441 14.0372Z" fill="#33B7BC"/>
</svg>
