<svg width="24" height="23" viewBox="0 0 24 23" fill="none" xmlns="http://www.w3.org/2000/svg">
<path fill-rule="evenodd" clip-rule="evenodd" d="M7.81021 13.8808L3.15064 11.9533C2.66128 11.7504 2.35021 11.2823 2.36599 10.7715C2.38271 10.2608 2.72164 9.81136 3.22307 9.63783C6.62442 8.45785 16.9121 4.88765 19.8928 3.85272C20.3441 3.69699 20.8483 3.79132 21.2048 4.09832C21.5614 4.40622 21.7118 4.87697 21.5976 5.32369C20.9346 7.89367 18.8844 15.8474 18.2585 18.275C18.1499 18.6977 17.8184 19.035 17.3857 19.1649C16.952 19.2957 16.4793 19.1996 16.1386 18.9122L12.9768 16.2505L10.5021 18.5242C10.1465 18.8508 9.6302 18.9567 9.16592 18.7992C8.70256 18.6408 8.372 18.2457 8.31165 17.7776L7.81021 13.8808ZM16.7821 17.3228L19.8074 5.5862L4.67351 10.8383L8.66822 12.4917C9.09165 12.667 9.38693 13.0443 9.44357 13.483L9.88 16.877L11.7084 15.1978L11.5468 15.0643C11.2673 14.8356 11.1029 14.5046 11.0927 14.1531C11.0816 13.8016 11.2274 13.4625 11.492 13.2187C12.4846 12.3066 15.1329 9.87454 15.1329 9.87454C15.4663 9.56842 15.9956 9.5791 16.315 9.89857C16.6335 10.2171 16.6223 10.7244 16.2899 11.0305L12.9452 14.1033L13.4958 14.5553L16.7821 17.3228Z" fill="white"/>
</svg>
